<?xml version="1.0" encoding="UTF-8"?>
<!DOCTYPE svg  PUBLIC '-//W3C//DTD SVG 1.1//EN'  'http://www.w3.org/Graphics/SVG/1.1/DTD/svg11.dtd'>
<svg enable-background="new 0 0 2014 1674.641" version="1.1" viewBox="0 0 2014 1674.641" xml:space="preserve" xmlns="http://www.w3.org/2000/svg">
		<path fill="#1c1b1b"  d="m44.883 1173.3c0 169.58 92.136 317.37 229.08 396.59v-793.53c-136.94 79.216-229.08 227.37-229.08 396.94z"/>
		<path fill="#1c1b1b"  d="m1496.5 173.21c-338.54-181.18-640.46-181.19-978.98 0-115.34 61.726-232.1 201.31-232.1 348.66v1048h125.99v-1048c0-100.78 121.24-229.18 225.54-272.38 280.15-116.04 460-116.04 740.11 0 104.3 43.203 225.54 171.6 225.54 272.38v1048h125.99v-1048c0-147.36-116.76-286.94-232.1-348.66z"/>
		<path fill="#1c1b1b" d="m1740 776.38v793.53c136.94-79.214 229.08-227 229.08-396.59 1e-3 -169.57-92.133-317.73-229.08-396.94z"/>
		<path fill="#f3644b" d="m541.72 709.03h-70.645c-27.201 0-49.252 22.051-49.252 49.253v829.79c0 27.201 22.05 49.252 49.252 49.252h70.645c27.201 0 49.252-22.051 49.252-49.252v-829.79c0-27.202-22.05-49.253-49.252-49.253z"/>
		<path fill="#f3644b" d="m1542 709.03h-70.646c-27.2 0-49.252 22.051-49.252 49.253v829.79c0 27.201 22.052 49.252 49.252 49.252h70.646c27.2 0 49.252-22.051 49.252-49.252v-829.79c-1e-3 -27.202-22.052-49.253-49.252-49.253z"/>

</svg>